<svg xmlns="http://www.w3.org/2000/svg" width="16" height="16" viewBox="0 0 16 16" fill="none">
    <g clip-path="url(#clip0_112_372)">
    <path d="M10.6667 13.3337H13.3333C14.0406 13.3337 14.7189 13.0528 15.219 12.5527C15.719 12.0526 16 11.3743 16 10.6671V8.00041C16 7.64679 15.8595 7.30765 15.6095 7.0576C15.3594 6.80755 15.0203 6.66707 14.6667 6.66707H10.7267C10.8848 5.73605 11.367 4.89089 12.088 4.28094C12.8089 3.67099 13.7223 3.33549 14.6667 3.33374C14.8435 3.33374 15.013 3.2635 15.1381 3.13848C15.2631 3.01345 15.3333 2.84389 15.3333 2.66707C15.3333 2.49026 15.2631 2.32069 15.1381 2.19567C15.013 2.07064 14.8435 2.00041 14.6667 2.00041C13.2527 2.002 11.897 2.56441 10.8972 3.56426C9.89733 4.56411 9.33492 5.91974 9.33333 7.33374V12.0004C9.33333 12.354 9.47381 12.6932 9.72386 12.9432C9.97391 13.1933 10.313 13.3337 10.6667 13.3337V13.3337Z" fill="#C5C5C5"/>
    <path d="M1.33323 13.3337H3.9999C4.70714 13.3337 5.38542 13.0528 5.88552 12.5527C6.38561 12.0526 6.66656 11.3743 6.66656 10.6671V8.00041C6.66656 7.64679 6.52609 7.30765 6.27604 7.0576C6.02599 6.80755 5.68685 6.66707 5.33323 6.66707H1.39323C1.55141 5.73605 2.03358 4.89089 2.75454 4.28094C3.47551 3.67099 4.38886 3.33549 5.33323 3.33374C5.51004 3.33374 5.67961 3.2635 5.80464 3.13848C5.92966 3.01345 5.9999 2.84389 5.9999 2.66707C5.9999 2.49026 5.92966 2.32069 5.80464 2.19567C5.67961 2.07064 5.51004 2.00041 5.33323 2.00041C3.91923 2.002 2.5636 2.56441 1.56375 3.56426C0.5639 4.56411 0.00148674 5.91974 -0.000101328 7.33374V12.0004C-0.000101328 12.354 0.140375 12.6932 0.390423 12.9432C0.640472 13.1933 0.97961 13.3337 1.33323 13.3337V13.3337Z" fill="#C5C5C5"/>
    </g>
    <defs>
    <clipPath id="clip0_112_372">
    <rect width="16" height="16" fill="white" transform="matrix(-1 0 0 -1 16 16)"/>
    </clipPath>
    </defs>
</svg>