<svg xmlns="http://www.w3.org/2000/svg" width="13" height="13" viewBox="0 0 13 13">
    <path d="M1.03125 0C4.68187 0 8.3325 0 12.0938 0C12.0938 3.63516 12.0938 7.27031 12.0938 11.0156C11.4131 11.0156 10.7325 11.0156 10.0312 11.0156C10.0158 8.55609 10.0003 6.09656 9.98438 3.5625C7.18453 6.36234 4.38469 9.16219 1.5 12.0469C1.35011 11.9719 1.28135 11.9336 1.17073 11.822C1.14447 11.7957 1.1182 11.7695 1.09115 11.7424C1.0634 11.7142 1.03566 11.6859 1.00708 11.6569C0.978213 11.6279 0.949346 11.5989 0.919604 11.569C0.82769 11.4765 0.736108 11.3838 0.644531 11.291C0.582175 11.2282 0.519797 11.1654 0.457397 11.1026C0.304683 10.9489 0.152265 10.7948 0 10.6406C0.0621621 10.5029 0.129592 10.4056 0.236325 10.299C0.26574 10.2694 0.295154 10.2398 0.32546 10.2093C0.357835 10.1772 0.390209 10.1451 0.423564 10.112C0.457908 10.0776 0.492252 10.0432 0.527636 10.0077C0.643078 9.89213 0.758852 9.77687 0.874626 9.66161C0.957325 9.57893 1.04 9.49624 1.12266 9.41353C1.30083 9.23534 1.47913 9.0573 1.65757 8.87939C1.91556 8.62216 2.17329 8.36467 2.43096 8.10712C2.84902 7.68927 3.26729 7.27163 3.68568 6.85412C4.09212 6.44854 4.49846 6.04287 4.90466 5.63706C4.9426 5.59916 4.9426 5.59916 4.98131 5.56049C5.17912 5.36287 5.37693 5.16525 5.57473 4.96763C6.5443 3.99894 7.51437 3.03076 8.48438 2.0625C6.02484 2.04703 3.56531 2.03156 1.03125 2.01562C1.03125 1.35047 1.03125 0.685313 1.03125 0Z" fill="#00DC82"/>
</svg>