<svg xmlns="http://www.w3.org/2000/svg" version="1.0" width="512.000000pt" height="512.000000pt" viewBox="0 0 512.000000 512.000000" preserveAspectRatio="xMidYMid meet">
    <g transform="translate(0.000000,512.000000) scale(0.100000,-0.100000)" fill="#ffffff" stroke="none">
    <path d="M720 4545 c-338 -70 -589 -308 -694 -660 -20 -69 -21 -86 -24 -1275 -2 -844 0 -1228 8 -1283 45 -312 262 -587 560 -706 164 -65 50 -62 2025 -59 l1790 3 75 23 c341 104 596 391 650 732 6 42 10 481 10 1221 0 1269 1 1242 -60 1412 -47 129 -119 238 -229 347 -141 139 -295 219 -483 250 -41 6 -667 10 -1813 9 -1417 -1 -1762 -3 -1815 -14z m3528 -500 c-2 -3 -326 -280 -719 -615 -829 -709 -795 -685 -969 -685 -102 0 -109 1 -181 37 -51 26 -129 84 -249 186 -96 81 -424 356 -727 610 -304 255 -553 465 -553 468 0 2 766 4 1702 4 936 0 1699 -2 1696 -5z m-3023 -982 c843 -706 790 -664 910 -723 160 -79 231 -95 415 -94 139 0 164 3 243 27 107 33 222 90 302 150 33 24 380 313 770 640 l710 596 5 -1132 c4 -904 2 -1143 -8 -1187 -28 -117 -122 -224 -242 -273 l-55 -22 -1680 -3 c-1154 -2 -1702 1 -1749 8 -131 20 -248 108 -304 228 l-27 57 -3 1164 c-2 1111 -1 1164 15 1149 10 -8 324 -271 698 -585z"/>
    </g>
</svg>